<?xml version="1.0" encoding="UTF-8"?>
<svg version="1.1" xmlns="http://www.w3.org/2000/svg" width="48" height="48">
<path d="M0 0 C0.69891357 -0.00287018 1.39782715 -0.00574036 2.11791992 -0.00869751 C3.59392101 -0.01073675 5.06994921 -0.00521653 6.54589844 0.00732422 C8.80465138 0.0233817 11.06161518 0.0074728 13.3203125 -0.01171875 C14.75521228 -0.00973629 16.19011095 -0.00589256 17.625 0 C18.93082031 0.00338379 20.23664062 0.00676758 21.58203125 0.01025391 C24.8125 0.3984375 24.8125 0.3984375 26.73681641 1.61083984 C28.16334214 3.98147566 28.20040192 5.63711233 28.2109375 8.3984375 C28.21673828 9.8525 28.21673828 9.8525 28.22265625 11.3359375 C28.21105469 12.3465625 28.19945312 13.3571875 28.1875 14.3984375 C28.19910156 15.4090625 28.21070313 16.4196875 28.22265625 17.4609375 C28.21878906 18.4303125 28.21492188 19.3996875 28.2109375 20.3984375 C28.20755371 21.2853125 28.20416992 22.1721875 28.20068359 23.0859375 C27.8125 25.3984375 27.8125 25.3984375 26.73681641 27.18603516 C23.75291791 29.06601992 21.11932907 28.7878201 17.625 28.796875 C16.92608643 28.79974518 16.22717285 28.80261536 15.50708008 28.80557251 C14.03107899 28.80761175 12.55505079 28.80209153 11.07910156 28.78955078 C8.82034862 28.7734933 6.56338482 28.7894022 4.3046875 28.80859375 C2.86978772 28.80661129 1.43488905 28.80276756 0 28.796875 C-1.30582031 28.79349121 -2.61164062 28.79010742 -3.95703125 28.78662109 C-7.1875 28.3984375 -7.1875 28.3984375 -9.11181641 27.18603516 C-10.53834214 24.81539934 -10.57540192 23.15976267 -10.5859375 20.3984375 C-10.58980469 19.4290625 -10.59367188 18.4596875 -10.59765625 17.4609375 C-10.58605469 16.4503125 -10.57445312 15.4396875 -10.5625 14.3984375 C-10.57410156 13.3878125 -10.58570313 12.3771875 -10.59765625 11.3359375 C-10.59378906 10.3665625 -10.58992187 9.3971875 -10.5859375 8.3984375 C-10.58255371 7.5115625 -10.57916992 6.6246875 -10.57568359 5.7109375 C-10.1875 3.3984375 -10.1875 3.3984375 -9.11181641 1.61083984 C-6.12791791 -0.26914492 -3.49432907 0.0090549 0 0 Z M-2.1875 4.3984375 C2.65924057 10.0921734 2.65924057 10.0921734 7.8125 15.3984375 C11.23777887 13.92495042 13.46205058 11.98935904 16.0625 9.3359375 C16.76890625 8.62308594 17.4753125 7.91023438 18.203125 7.17578125 C19.92436865 5.67451246 19.92436865 5.67451246 19.8125 4.3984375 C12.5525 4.3984375 5.2925 4.3984375 -2.1875 4.3984375 Z M-6.1875 7.3984375 C-6.1875 12.0184375 -6.1875 16.6384375 -6.1875 21.3984375 C-3.8775 19.4184375 -1.5675 17.4384375 0.8125 15.3984375 C-1.08273546 10.90953629 -1.08273546 10.90953629 -6.1875 7.3984375 Z M21.40234375 8.7109375 C20.85707031 9.2678125 20.31179687 9.8246875 19.75 10.3984375 C19.20214844 10.9553125 18.65429688 11.5121875 18.08984375 12.0859375 C17.66832031 12.5190625 17.24679688 12.9521875 16.8125 13.3984375 C18.46442612 17.60334036 19.82478669 18.20826685 23.8125 21.3984375 C23.8125 16.7784375 23.8125 12.1584375 23.8125 7.3984375 C22.61342531 7.28488647 22.61342531 7.28488647 21.40234375 8.7109375 Z M3.8125 17.3984375 C1.8325 19.7084375 -0.1475 22.0184375 -2.1875 24.3984375 C5.0725 24.3984375 12.3325 24.3984375 19.8125 24.3984375 C17.8325 22.0884375 15.8525 19.7784375 13.8125 17.3984375 C12.8225 17.8934375 12.8225 17.8934375 11.8125 18.3984375 C6.27403846 18.62920673 6.27403846 18.62920673 3.8125 17.3984375 Z " fill="#FC7C13" transform="translate(15.1875,9.6015625)"/>
</svg>
